<?xml version="1.0" encoding="UTF-8" standalone="no"?><!DOCTYPE svg PUBLIC "-//W3C//DTD SVG 1.1//EN" "http://www.w3.org/Graphics/SVG/1.1/DTD/svg11.dtd"><svg width="100%" height="100%" viewBox="0 0 100 25" version="1.1" xmlns="http://www.w3.org/2000/svg" xmlns:xlink="http://www.w3.org/1999/xlink" xml:space="preserve" xmlns:serif="http://www.serif.com/" style="fill-rule:evenodd;clip-rule:evenodd;stroke-linejoin:round;stroke-miterlimit:2;"><g transform="matrix(0.547644,0,0,0.547644,-56.6108,-265.31)"><g transform="matrix(24,0,0,24,103.371,502.193)"><path d="M0.66,-0.368c-0,-0.14 -0.058,-0.256 -0.161,-0.318c-0.058,-0.035 -0.146,-0.053 -0.262,-0.053l-0.169,0l0,0.739l0.172,-0c0.112,-0 0.179,-0.011 0.239,-0.041c0.114,-0.056 0.181,-0.178 0.181,-0.327Zm-0.138,0c0,0.089 -0.041,0.168 -0.107,0.204c-0.041,0.023 -0.098,0.033 -0.18,0.033l-0.03,0l-0,-0.477l0.027,-0c0.087,-0 0.134,0.008 0.177,0.03c0.07,0.036 0.113,0.115 0.113,0.21Z" style="fill:#2e2e2e;fill-rule:nonzero;"/></g><g transform="matrix(24,0,0,24,120.171,502.193)"><path d="M0.615,-0l-0,-0.554l-0.122,0l0,0.074c-0.046,-0.061 -0.101,-0.087 -0.181,-0.087c-0.164,0 -0.282,0.123 -0.282,0.292c0,0.167 0.117,0.288 0.279,0.288c0.078,-0 0.131,-0.025 0.184,-0.085l0,0.072l0.122,-0Zm-0.126,-0.273c0,0.092 -0.06,0.164 -0.161,0.164c-0.097,0 -0.164,-0.066 -0.164,-0.163c-0,-0.101 0.067,-0.173 0.162,-0.173c0.095,-0 0.163,0.071 0.163,0.172Z" style="fill:#2e2e2e;fill-rule:nonzero;"/></g><g transform="matrix(24,0,0,24,136.011,502.193)"><path d="M0.553,-0.554l-0.15,0l-0.126,0.367l-0.128,-0.367l-0.148,0l0.223,0.554l0.106,-0l0.223,-0.554Z" style="fill:#2e2e2e;fill-rule:nonzero;"/></g><g transform="matrix(24,0,0,24,148.731,502.193)"><path d="M0.608,-0.269c0,-0.172 -0.121,-0.298 -0.286,-0.298c-0.163,0 -0.292,0.129 -0.292,0.292c0,0.162 0.131,0.288 0.3,0.288c0.112,-0 0.227,-0.063 0.264,-0.177l-0.145,-0c-0.034,0.04 -0.067,0.055 -0.122,0.055c-0.079,0 -0.137,-0.042 -0.153,-0.109l0.429,-0c0.004,-0.019 0.005,-0.031 0.005,-0.051Zm-0.131,-0.066l-0.307,0c0.021,-0.071 0.075,-0.11 0.154,-0.11c0.082,-0 0.136,0.039 0.153,0.11Z" style="fill:#2e2e2e;fill-rule:nonzero;"/></g><g transform="matrix(24,0,0,24,170.811,502.193)"><path d="M0.76,-0.206l-0.161,0c-0.06,0.063 -0.112,0.087 -0.183,0.087c-0.136,0 -0.248,-0.114 -0.248,-0.252c-0,-0.139 0.104,-0.249 0.245,-0.249c0.086,-0 0.144,0.028 0.194,0.093l0.153,-0c-0.065,-0.143 -0.198,-0.225 -0.35,-0.225c-0.209,0 -0.38,0.171 -0.38,0.38c0,0.213 0.173,0.385 0.389,0.385c0.151,-0 0.283,-0.084 0.341,-0.219Z" style="fill:#2e2e2e;fill-rule:nonzero;"/></g><g transform="matrix(24,0,0,24,189.531,502.193)"><path d="M0.619,-0.273c-0,-0.165 -0.129,-0.294 -0.296,-0.294c-0.161,0 -0.293,0.131 -0.293,0.29c0,0.16 0.132,0.29 0.294,0.29c0.161,-0 0.295,-0.13 0.295,-0.286Zm-0.134,-0.004c0,0.093 -0.072,0.168 -0.16,0.168c-0.09,0 -0.161,-0.075 -0.161,-0.17c-0,-0.091 0.073,-0.166 0.16,-0.166c0.089,-0 0.161,0.076 0.161,0.168Z" style="fill:#2e2e2e;fill-rule:nonzero;"/></g><g transform="matrix(24,0,0,24,204.891,502.193)"><path d="M0.546,-0l-0,-0.297c-0,-0.099 -0.01,-0.147 -0.04,-0.19c-0.036,-0.052 -0.096,-0.08 -0.173,-0.08c-0.063,0 -0.107,0.019 -0.156,0.066l-0,-0.053l-0.123,0l0,0.554l0.133,-0l-0,-0.261c-0,-0.074 0.005,-0.106 0.022,-0.133c0.021,-0.033 0.056,-0.051 0.098,-0.051c0.066,-0 0.106,0.026 0.106,0.174l0,0.271l0.133,-0Z" style="fill:#2e2e2e;fill-rule:nonzero;"/></g><g transform="matrix(24,0,0,24,219.291,502.193)"><path d="M0.546,-0l-0,-0.297c-0,-0.099 -0.01,-0.147 -0.04,-0.19c-0.036,-0.052 -0.096,-0.08 -0.173,-0.08c-0.063,0 -0.107,0.019 -0.156,0.066l-0,-0.053l-0.123,0l0,0.554l0.133,-0l-0,-0.261c-0,-0.074 0.005,-0.106 0.022,-0.133c0.021,-0.033 0.056,-0.051 0.098,-0.051c0.066,-0 0.106,0.026 0.106,0.174l0,0.271l0.133,-0Z" style="fill:#2e2e2e;fill-rule:nonzero;"/></g><g transform="matrix(24,0,0,24,233.691,502.193)"><path d="M0.608,-0.269c0,-0.172 -0.121,-0.298 -0.286,-0.298c-0.163,0 -0.292,0.129 -0.292,0.292c0,0.162 0.131,0.288 0.3,0.288c0.112,-0 0.227,-0.063 0.264,-0.177l-0.145,-0c-0.034,0.04 -0.067,0.055 -0.122,0.055c-0.079,0 -0.137,-0.042 -0.153,-0.109l0.429,-0c0.004,-0.019 0.005,-0.031 0.005,-0.051Zm-0.131,-0.066l-0.307,0c0.021,-0.071 0.075,-0.11 0.154,-0.11c0.082,-0 0.136,0.039 0.153,0.11Z" style="fill:#2e2e2e;fill-rule:nonzero;"/></g><g transform="matrix(24,0,0,24,249.051,502.193)"><path d="M0.608,-0.269c0,-0.172 -0.121,-0.298 -0.286,-0.298c-0.163,0 -0.292,0.129 -0.292,0.292c0,0.162 0.131,0.288 0.3,0.288c0.112,-0 0.227,-0.063 0.264,-0.177l-0.145,-0c-0.034,0.04 -0.067,0.055 -0.122,0.055c-0.079,0 -0.137,-0.042 -0.153,-0.109l0.429,-0c0.004,-0.019 0.005,-0.031 0.005,-0.051Zm-0.131,-0.066l-0.307,0c0.021,-0.071 0.075,-0.11 0.154,-0.11c0.082,-0 0.136,0.039 0.153,0.11Z" style="fill:#2e2e2e;fill-rule:nonzero;"/></g><g transform="matrix(24,0,0,24,264.411,502.193)"><rect x="0.054" y="-0.739" width="0.133" height="0.739" style="fill:#2e2e2e;fill-rule:nonzero;"/></g><g transform="matrix(24,0,0,24,270.171,502.193)"><path d="M0.568,-0.554l-0.153,0l-0.134,0.359l-0.123,-0.359l-0.152,0l0.203,0.502l-0.104,0.237l0.143,-0l0.32,-0.739Z" style="fill:#2e2e2e;fill-rule:nonzero;"/></g><g transform="matrix(24,0,0,24,103.371,526.193)"><path d="M0.76,-0.206l-0.161,0c-0.06,0.063 -0.112,0.087 -0.183,0.087c-0.136,0 -0.248,-0.114 -0.248,-0.252c-0,-0.139 0.104,-0.249 0.245,-0.249c0.086,-0 0.144,0.028 0.194,0.093l0.153,-0c-0.065,-0.143 -0.198,-0.225 -0.35,-0.225c-0.209,0 -0.38,0.171 -0.38,0.38c0,0.213 0.173,0.385 0.389,0.385c0.151,-0 0.283,-0.084 0.341,-0.219Z" style="fill:#2e2e2e;fill-rule:nonzero;"/></g><g transform="matrix(24,0,0,24,122.091,526.193)"><path d="M0.619,-0.273c-0,-0.165 -0.129,-0.294 -0.296,-0.294c-0.161,0 -0.293,0.131 -0.293,0.29c0,0.16 0.132,0.29 0.294,0.29c0.161,-0 0.295,-0.13 0.295,-0.286Zm-0.134,-0.004c0,0.093 -0.072,0.168 -0.16,0.168c-0.09,0 -0.161,-0.075 -0.161,-0.17c-0,-0.091 0.073,-0.166 0.16,-0.166c0.089,-0 0.161,0.076 0.161,0.168Z" style="fill:#2e2e2e;fill-rule:nonzero;"/></g><g transform="matrix(24,0,0,24,137.451,526.193)"><path d="M0.546,-0l-0,-0.297c-0,-0.099 -0.01,-0.147 -0.04,-0.19c-0.036,-0.052 -0.096,-0.08 -0.173,-0.08c-0.063,0 -0.107,0.019 -0.156,0.066l-0,-0.053l-0.123,0l0,0.554l0.133,-0l-0,-0.261c-0,-0.074 0.005,-0.106 0.022,-0.133c0.021,-0.033 0.056,-0.051 0.098,-0.051c0.066,-0 0.106,0.026 0.106,0.174l0,0.271l0.133,-0Z" style="fill:#2e2e2e;fill-rule:nonzero;"/></g><g transform="matrix(24,0,0,24,151.851,526.193)"><path d="M0.42,-0.176c-0,-0.082 -0.038,-0.126 -0.154,-0.162c-0.091,-0.029 -0.094,-0.031 -0.094,-0.06c-0,-0.027 0.022,-0.047 0.051,-0.047c0.028,-0 0.046,0.015 0.052,0.044l0.13,-0c-0.005,-0.104 -0.088,-0.166 -0.182,-0.166c-0.103,0 -0.184,0.074 -0.184,0.169c0,0.081 0.044,0.127 0.154,0.164c0.089,0.03 0.094,0.039 0.094,0.071c0,0.031 -0.026,0.054 -0.06,0.054c-0.039,0 -0.061,-0.02 -0.074,-0.067l-0.134,0c0.014,0.129 0.093,0.189 0.203,0.189c0.111,-0 0.198,-0.083 0.198,-0.189Z" style="fill:#2e2e2e;fill-rule:nonzero;"/></g><g transform="matrix(24,0,0,24,162.651,526.193)"><path d="M0.287,-0.433l-0,-0.121l-0.08,0l-0,-0.185l-0.133,0l0,0.185l-0.065,0l0,0.121l0.065,-0l0,0.433l0.133,-0l-0,-0.433l0.08,-0Z" style="fill:#2e2e2e;fill-rule:nonzero;"/></g><g transform="matrix(24,0,0,24,169.851,526.193)"><path d="M0.306,-0.439l-0,-0.128l-0.01,0c-0.057,0 -0.085,0.016 -0.12,0.067l-0,-0.054l-0.122,0l0,0.554l0.133,-0l-0,-0.308c-0,-0.086 0.039,-0.129 0.119,-0.131Z" style="fill:#2e2e2e;fill-rule:nonzero;"/></g><g transform="matrix(24,0,0,24,177.531,526.193)"><path d="M0.547,-0l-0,-0.554l-0.133,0l0,0.261c0,0.074 -0.006,0.108 -0.021,0.133c-0.02,0.032 -0.056,0.051 -0.101,0.051c-0.064,0 -0.105,-0.027 -0.105,-0.174l-0,-0.271l-0.133,0l0,0.297c0,0.195 0.082,0.27 0.211,0.27c0.067,-0 0.109,-0.017 0.159,-0.066l0,0.053l0.123,-0Z" style="fill:#2e2e2e;fill-rule:nonzero;"/></g><g transform="matrix(24,0,0,24,191.931,526.193)"><path d="M0.601,-0.182l-0.15,0c-0.033,0.051 -0.071,0.073 -0.126,0.073c-0.092,0 -0.161,-0.072 -0.161,-0.169c-0,-0.097 0.066,-0.167 0.158,-0.167c0.06,-0 0.102,0.025 0.129,0.076l0.15,-0c-0.043,-0.127 -0.153,-0.198 -0.279,-0.198c-0.164,0 -0.292,0.127 -0.292,0.29c0,0.161 0.132,0.29 0.296,0.29c0.129,-0 0.229,-0.071 0.275,-0.195Z" style="fill:#2e2e2e;fill-rule:nonzero;"/></g><g transform="matrix(24,0,0,24,207.291,526.193)"><path d="M0.287,-0.433l-0,-0.121l-0.08,0l-0,-0.185l-0.133,0l0,0.185l-0.065,0l0,0.121l0.065,-0l0,0.433l0.133,-0l-0,-0.433l0.08,-0Z" style="fill:#2e2e2e;fill-rule:nonzero;"/></g><g transform="matrix(24,0,0,24,214.491,526.193)"><path d="M0.187,-0l-0,-0.554l-0.133,0l0,0.554l0.133,-0Zm0.001,-0.634l-0,-0.133l-0.133,0l0,0.133l0.133,-0Z" style="fill:#2e2e2e;fill-rule:nonzero;"/></g><g transform="matrix(24,0,0,24,220.251,526.193)"><path d="M0.619,-0.273c-0,-0.165 -0.129,-0.294 -0.296,-0.294c-0.161,0 -0.293,0.131 -0.293,0.29c0,0.16 0.132,0.29 0.294,0.29c0.161,-0 0.295,-0.13 0.295,-0.286Zm-0.134,-0.004c0,0.093 -0.072,0.168 -0.16,0.168c-0.09,0 -0.161,-0.075 -0.161,-0.17c-0,-0.091 0.073,-0.166 0.16,-0.166c0.089,-0 0.161,0.076 0.161,0.168Z" style="fill:#2e2e2e;fill-rule:nonzero;"/></g><g transform="matrix(24,0,0,24,235.611,526.193)"><path d="M0.546,-0l-0,-0.297c-0,-0.099 -0.01,-0.147 -0.04,-0.19c-0.036,-0.052 -0.096,-0.08 -0.173,-0.08c-0.063,0 -0.107,0.019 -0.156,0.066l-0,-0.053l-0.123,0l0,0.554l0.133,-0l-0,-0.261c-0,-0.074 0.005,-0.106 0.022,-0.133c0.021,-0.033 0.056,-0.051 0.098,-0.051c0.066,-0 0.106,0.026 0.106,0.174l0,0.271l0.133,-0Z" style="fill:#2e2e2e;fill-rule:nonzero;"/></g></g><rect x="0.543" y="23.571" width="79.144" height="1.429" style="fill:#2e2e2e;"/></svg>