<?xml version="1.0" encoding="UTF-8" standalone="no"?><!DOCTYPE svg PUBLIC "-//W3C//DTD SVG 1.1//EN" "http://www.w3.org/Graphics/SVG/1.1/DTD/svg11.dtd"><svg width="100%" height="100%" viewBox="0 0 700 700" version="1.1" xmlns="http://www.w3.org/2000/svg" xmlns:xlink="http://www.w3.org/1999/xlink" xml:space="preserve" xmlns:serif="http://www.serif.com/" style="fill-rule:evenodd;clip-rule:evenodd;stroke-linejoin:round;stroke-miterlimit:2;"><g><path d="M10.608,360.602c-5.859,-0 -10.605,-4.746 -10.605,-10.606c-0,-5.859 4.746,-10.605 10.605,-10.605l678.787,-0c5.859,-0 10.605,4.746 10.605,10.605c-0,5.86 -4.746,10.606 -10.605,10.606l-678.787,-0Zm106.06,106.06c-5.854,-0 -10.605,-4.747 -10.605,-10.606c-0,-5.854 4.751,-10.605 10.605,-10.605l466.674,-0c5.855,-0 10.606,4.751 10.606,10.605c-0,5.859 -4.751,10.606 -10.606,10.606l-466.674,-0Zm0,-212.125c-5.854,-0 -10.605,-4.751 -10.605,-10.606c-0,-5.859 4.751,-10.605 10.605,-10.605l466.674,-0c5.855,-0 10.606,4.746 10.606,10.605c-0,5.855 -4.751,10.606 -10.606,10.606l-466.674,-0Zm106.065,318.187c-5.859,-0 -10.61,-4.751 -10.61,-10.611c-0,-5.854 4.751,-10.605 10.61,-10.605l254.537,0c5.859,0 10.61,4.751 10.61,10.605c0,5.86 -4.751,10.611 -10.61,10.611l-254.537,-0Zm-0,-424.237c-5.859,0 -10.61,-4.751 -10.61,-10.605c-0,-5.86 4.751,-10.611 10.61,-10.611l254.537,0c5.859,0 10.61,4.751 10.61,10.611c0,5.854 -4.751,10.605 -10.61,10.605l-254.537,0Zm106.06,530.299c-5.86,0 -10.606,-4.751 -10.606,-10.605c0,-5.86 4.746,-10.606 10.606,-10.606l42.422,0c5.859,0 10.606,4.746 10.606,10.606c-0,5.854 -4.747,10.605 -10.606,10.605l-42.422,0Zm-0,-636.361c-5.86,-0 -10.606,-4.746 -10.606,-10.606c0,-5.854 4.746,-10.605 10.606,-10.605l42.422,-0c5.859,-0 10.606,4.751 10.606,10.605c-0,5.86 -4.747,10.606 -10.606,10.606l-42.422,-0Z" style="fill-rule:nonzero;"/></g></svg>