<?xml version="1.0" encoding="UTF-8" standalone="no"?><!DOCTYPE svg PUBLIC "-//W3C//DTD SVG 1.1//EN" "http://www.w3.org/Graphics/SVG/1.1/DTD/svg11.dtd"><svg width="100%" height="100%" viewBox="0 0 700 700" version="1.1" xmlns="http://www.w3.org/2000/svg" xmlns:xlink="http://www.w3.org/1999/xlink" xml:space="preserve" xmlns:serif="http://www.serif.com/" style="fill-rule:evenodd;clip-rule:evenodd;stroke-linejoin:round;stroke-miterlimit:2;"><g><path d="M696.322,345.632l-341.256,-341.256c-2.414,-2.414 -6.332,-2.42 -8.752,0l-341.248,341.248c-2.42,2.42 -2.417,6.335 0,8.752l341.248,341.248c2.414,2.414 6.332,2.42 8.752,-0l341.248,-341.248c2.42,-2.42 2.417,-6.335 0.003,-8.749l0.005,0.005Zm-453.122,229.373l-17.767,-90.996l42.84,-42.841l38.555,197.46l-63.628,-63.623Zm-79.289,-79.289l-47.601,-243.834l42.84,-42.84l52.883,270.865l-31.958,31.958l-16.164,-16.149Zm-79.288,-79.288l-21.701,-111.159l42.841,-42.841l42.484,217.624l-63.624,-63.624Zm130.273,78.131l12.647,64.789l-38.718,-38.718l26.071,-26.071Zm7.688,-25.185l-52.883,-270.866l7.749,-7.748l52.227,52.228c0.016,0.149 -0.03,0.293 -0.003,0.442l35.751,183.108l-42.841,42.836Zm22.64,-210.843l63.736,63.736c0.015,0.149 -0.031,0.293 -0.004,0.442l9.845,50.434l-42.84,42.84l-30.737,-157.452Zm79.289,79.289l14.81,14.81l-9.971,9.97l-4.839,-24.78Zm23.559,23.559l40.179,40.18c0.015,0.149 -0.03,0.293 -0.003,0.442l39.453,202.108c0.07,0.369 0.232,0.69 0.363,1.028l-42.975,42.975l-52.882,-270.865l15.865,-15.868Zm143.792,179.956l-8.771,-44.934l26.853,26.852l-18.082,18.082Zm-24.325,-60.489c0.015,0.15 -0.031,0.293 -0.003,0.443l13.552,69.43c0.07,0.369 0.232,0.689 0.363,1.028l-42.981,42.981l-34.673,-177.622l63.742,63.74Zm51.156,33.658l-161.874,-161.874l163.616,-163.616c0.311,-0.311 0.473,-0.699 0.699,-1.059l162.053,162.054l-164.494,164.495Zm-5.953,-334.951c-0.354,0.232 -0.748,0.388 -1.059,0.699l-163.616,163.616l-161.874,-161.874l164.499,-164.499l162.05,162.058Zm-460.364,136.257l16.582,84.948l-50.765,-50.765l34.183,-34.183Zm270.109,338.48l-43.664,-223.662l42.84,-42.84l52.883,270.865l-23.849,23.849l-28.21,-28.212Z" style="fill-rule:nonzero;"/></g></svg>