<?xml version="1.0" encoding="UTF-8" standalone="no"?><!DOCTYPE svg PUBLIC "-//W3C//DTD SVG 1.1//EN" "http://www.w3.org/Graphics/SVG/1.1/DTD/svg11.dtd"><svg width="100%" height="100%" viewBox="0 0 700 700" version="1.1" xmlns="http://www.w3.org/2000/svg" xmlns:xlink="http://www.w3.org/1999/xlink" xml:space="preserve" xmlns:serif="http://www.serif.com/" style="fill-rule:evenodd;clip-rule:evenodd;stroke-linejoin:round;stroke-miterlimit:2;"><g><path d="M0.001,494.616c0,77.126 62.875,140.835 140.836,140.835c77.967,0.006 140.842,-63.711 140.842,-140.835c-0,-5.872 -0.837,-10.9 -0.837,-16.765l103.113,-19.28l112.334,159.281c1.678,2.515 4.193,3.351 6.707,3.351l1.679,0c3.35,-0.836 5.871,-3.351 6.707,-6.707l103.949,-466.109l10.058,-0c2.515,3.351 6.708,5.871 10.901,5.871l49.459,-0c7.544,-0 14.251,-6.707 14.251,-14.251c-0,-7.543 -6.707,-14.251 -14.251,-14.251l-49.459,0c-4.193,0 -8.386,2.515 -10.901,5.872l-16.765,-0c-4.192,-0 -7.543,2.514 -8.385,6.707l-17.608,80.482l-12.573,0c-4.186,-62.049 -57.003,-111.509 -120.714,-111.509c-20.958,-0 -41.079,5.029 -59.524,15.087c-21.795,-36.045 -60.359,-57.846 -103.113,-57.846c-53.652,-0 -100.597,35.209 -115.69,86.347c-10.9,-5.029 -22.636,-7.543 -35.21,-7.543c-43.594,-0 -79.639,33.53 -83.832,76.289l-19.28,-0c-2.515,-0 -5.029,1.678 -6.708,3.351c-1.678,2.514 -1.678,5.029 -0.836,7.543l48.623,140.001c-43.594,24.314 -73.774,70.423 -73.774,124.076l0.001,0.003Zm499.642,98.084l-97.247,-137.486l134.135,-24.308l-36.888,161.794Zm-362.995,-432.576c12.573,-0 25.151,3.35 36.045,10.9c2.515,1.678 5.029,1.678 7.544,0.836c2.514,-0.836 4.193,-3.351 5.029,-5.871c9.222,-48.623 52.816,-83.833 101.44,-83.833c39.402,0 74.611,21.795 92.219,57.003c0.836,2.515 3.351,3.351 5.029,4.193c2.515,0.836 5.029,0 6.707,-0.836c16.765,-11.736 36.888,-17.608 57.846,-17.608c54.489,0 98.92,41.916 103.113,95.569l-482.037,0.006c4.187,-34.373 32.694,-60.359 67.061,-60.359l0.004,-0Zm-92.213,76.283l534.014,-0l-38.566,176.887l-263.234,47.787c-15.087,-61.196 -70.418,-107.306 -136.649,-107.306c-18.443,0 -36.045,3.351 -51.975,10.058l-43.59,-127.426Zm96.405,134.135c57.846,-0 106.469,40.238 119.877,93.891l-62.033,10.9c-8.385,-24.309 -31.016,-41.916 -57.846,-41.916c-33.53,-0 -61.196,27.664 -61.196,61.196c0,33.53 27.665,61.196 61.196,61.196c33.53,0 61.197,-27.665 61.197,-61.196l-0,-2.515l62.037,-10.9c0.836,4.193 0.836,9.222 0.836,13.415c0,67.903 -56.167,123.234 -124.07,123.234c-67.903,-0 -124.071,-55.331 -124.071,-123.234c0,-67.903 55.331,-124.071 124.071,-124.071l0.002,-0Zm-0,132.455l1.678,0l42.753,-7.543c0,24.308 -20.121,44.431 -44.431,44.431c-24.31,-0 -44.431,-20.121 -44.431,-44.431c-0,-24.309 20.121,-44.432 44.431,-44.432c18.443,0 35.21,11.737 41.079,28.502l-42.757,6.707c-4.193,0.837 -7.544,5.029 -6.707,10.059c0.842,3.35 4.192,6.707 8.385,6.707l-0,0Z" style="fill-rule:nonzero;"/></g></svg>