<?xml version="1.0" encoding="UTF-8" standalone="no"?><!DOCTYPE svg PUBLIC "-//W3C//DTD SVG 1.1//EN" "http://www.w3.org/Graphics/SVG/1.1/DTD/svg11.dtd"><svg width="100%" height="100%" viewBox="0 0 700 700" version="1.1" xmlns="http://www.w3.org/2000/svg" xmlns:xlink="http://www.w3.org/1999/xlink" xml:space="preserve" xmlns:serif="http://www.serif.com/" style="fill-rule:evenodd;clip-rule:evenodd;stroke-linejoin:round;stroke-miterlimit:2;"><g><path d="M641.292,499.655c37.933,-31.613 58.708,-71.354 58.708,-113.129c0,-89.302 -95.29,-163.148 -217.903,-173.646c-33.868,-69.885 -128.369,-118.093 -234.162,-118.093c-136.722,0.109 -247.935,78.575 -247.935,175.11c-0,41.66 20.775,81.516 58.708,113.129l-28.79,86.48c-1.918,5.645 0.223,11.404 4.288,15.583c4.855,5.078 13.998,3.046 16.03,2.032l113.015,-56.453c7.225,-3.612 10.161,-12.308 6.549,-19.533c-3.612,-7.225 -12.308,-10.162 -19.533,-6.549l-81.517,40.755l20.884,-62.773c2.032,-5.983 -0.114,-12.532 -5.078,-16.259c-35.677,-26.872 -55.434,-61.078 -55.434,-96.418c0,-80.388 98.112,-145.863 218.808,-145.863c87.384,0 165.516,35.111 200.059,87.613c-134.806,1.581 -243.863,79.369 -243.863,174.884c-0,96.533 111.205,175.003 247.934,175.003c30.937,0 61.193,-3.95 89.755,-11.741l107.93,53.968c6.55,3.275 13.323,0.338 16.03,-2.032c4.403,-3.841 6.097,-10.047 4.289,-15.583l-28.772,-86.485Zm-30.937,-0.452l20.884,62.773l-81.517,-40.755c-2.032,-1.014 -4.288,-1.58 -6.549,-1.58c-1.356,-0 -2.708,0.223 -4.065,0.566c-27.547,8.015 -56.9,12.194 -87.161,12.194c-120.576,0 -218.807,-65.372 -218.807,-145.862c0,-80.389 98.112,-145.863 218.807,-145.863c6.773,-0 13.437,0.223 19.986,0.676l0.338,-0c111.096,6.887 198.369,69.322 198.369,145.184c0,35.225 -19.642,69.546 -55.433,96.418c-4.736,3.727 -6.768,10.271 -4.85,16.259l-0.002,-0.01Z" style="fill-rule:nonzero;"/><path d="M452.064,342.828c-24.159,0 -43.807,19.643 -43.807,43.807c0,24.159 19.643,43.807 43.807,43.807c24.159,-0 43.807,-19.643 43.807,-43.807c-0,-24.164 -19.648,-43.807 -43.807,-43.807Zm-0,58.256c-8.015,0 -14.564,-6.549 -14.564,-14.564c0,-8.014 6.55,-14.563 14.564,-14.563c8.014,-0 14.564,6.549 14.564,14.563c-0,8.015 -6.55,14.564 -14.564,14.564Z" style="fill-rule:nonzero;"/><path d="M335.435,342.828c-24.159,0 -43.807,19.643 -43.807,43.807c0,24.159 19.643,43.807 43.807,43.807c24.159,-0 43.692,-19.643 43.692,-43.807c0,-24.164 -19.533,-43.807 -43.692,-43.807Zm0,58.256c-8.015,0 -14.564,-6.549 -14.564,-14.564c0,-8.014 6.55,-14.563 14.564,-14.563c8.015,-0 14.564,6.549 14.564,14.563c-0,8.015 -6.55,14.564 -14.564,14.564Z" style="fill-rule:nonzero;"/><path d="M568.813,342.828c-24.159,0 -43.807,19.643 -43.807,43.807c-0,24.159 19.643,43.807 43.807,43.807c24.158,-0 43.806,-19.643 43.806,-43.807c-0.114,-24.164 -19.762,-43.807 -43.806,-43.807Zm-0,58.256c-8.015,0 -14.564,-6.549 -14.564,-14.564c0,-8.014 6.549,-14.563 14.564,-14.563c8.014,-0 14.563,6.549 14.563,14.563c0,8.015 -6.549,14.564 -14.563,14.564Z" style="fill-rule:nonzero;"/></g></svg>