<?xml version="1.0" encoding="UTF-8" standalone="no"?><!DOCTYPE svg PUBLIC "-//W3C//DTD SVG 1.1//EN" "http://www.w3.org/Graphics/SVG/1.1/DTD/svg11.dtd"><svg width="100%" height="100%" viewBox="0 0 700 700" version="1.1" xmlns="http://www.w3.org/2000/svg" xmlns:xlink="http://www.w3.org/1999/xlink" xml:space="preserve" xmlns:serif="http://www.serif.com/" style="fill-rule:evenodd;clip-rule:evenodd;stroke-linejoin:round;stroke-miterlimit:2;"><g><path d="M422.921,189.541c-0,10.047 -2.032,19.871 -5.982,29.013c-3.161,7.339 -0,16.259 7.562,19.195c9.371,3.613 16.82,-2.032 19.195,-7.562c5.645,-12.869 8.467,-26.529 8.467,-40.645c-0,-14.226 -2.937,-28 -8.581,-40.984c-3.275,-7.338 -11.856,-10.727 -19.195,-7.453c-7.339,3.275 -10.728,11.856 -7.454,19.195c3.956,9.148 5.988,19.081 5.988,29.242l-0,-0.001Z" style="fill-rule:nonzero;"/><path d="M383.522,285.955c7.563,-2.599 11.627,-10.951 9.034,-18.514c-2.599,-7.562 -10.951,-11.627 -18.514,-9.033c-7.677,2.599 -15.691,3.95 -23.934,3.95c-40.193,0 -72.932,-32.739 -72.932,-72.932c-0,-40.193 32.739,-72.931 72.932,-72.931c8.243,-0 16.258,1.356 23.934,3.95c1.58,0.566 13.66,3.16 18.514,-9.034c2.936,-7.453 -1.357,-15.92 -9.034,-18.513c-10.727,-3.727 -22.017,-5.645 -33.414,-5.645c-56.337,0 -102.06,45.837 -102.06,102.06c0,56.222 45.837,102.059 102.06,102.059c11.403,0.229 22.578,-1.689 33.414,-5.416l0,-0.001Z" style="fill-rule:nonzero;"/><path d="M349.992,554.093c4.74,0 9.257,-2.37 11.965,-6.32c7.224,-10.499 177.579,-258.199 177.579,-358.219c0.005,-104.549 -85.007,-189.554 -189.555,-189.554c-104.547,0 -189.554,85.012 -189.554,189.554c0,100.028 170.368,347.721 177.579,358.219c2.713,3.956 7.23,6.326 11.97,6.326l0.016,-0.006Zm-0,-524.98c88.401,0 160.428,71.914 160.428,160.428c-0,69.882 -106.462,243.403 -160.428,324.023c-53.967,-80.609 -160.428,-254.127 -160.428,-324.023c-0,-88.401 72.028,-160.428 160.428,-160.428Z" style="fill-rule:nonzero;"/><path d="M661.135,562.223l-210.777,-75.303c-7.563,-2.708 -15.921,1.243 -18.629,8.805c-2.708,7.563 1.243,15.921 8.805,18.628l172.284,61.529l-262.83,93.931l-262.829,-93.817l172.283,-61.528c7.563,-2.708 11.518,-11.066 8.805,-18.628c-2.708,-7.563 -11.066,-11.518 -18.628,-8.805l-210.671,75.188c-9.709,3.046 -16.258,19.986 0,27.433l306.18,109.399c4.854,1.809 8.243,0.566 9.823,-0l306.18,-109.399c18.852,-10.951 5.754,-25.401 -0,-27.433l0.004,0Z" style="fill-rule:nonzero;"/></g></svg>