<?xml version="1.0" encoding="UTF-8" standalone="no"?><!DOCTYPE svg PUBLIC "-//W3C//DTD SVG 1.1//EN" "http://www.w3.org/Graphics/SVG/1.1/DTD/svg11.dtd"><svg width="100%" height="100%" viewBox="0 0 700 700" version="1.1" xmlns="http://www.w3.org/2000/svg" xmlns:xlink="http://www.w3.org/1999/xlink" xml:space="preserve" xmlns:serif="http://www.serif.com/" style="fill-rule:evenodd;clip-rule:evenodd;stroke-linejoin:round;stroke-miterlimit:2;"><g><path d="M462.817,277.93c-5.873,-8.351 -25.289,-30.366 -40.641,-40.75c-5.873,-3.95 -13.773,-3.497 -18.741,1.58l-54.297,54.185c-14.785,14.561 -2.484,25.174 1.128,26.977c6.662,3.274 12.53,7.338 17.497,12.415c4.854,4.74 9.033,10.727 12.416,17.498c6.663,13.887 8.242,29.69 4.178,44.705c-2.936,11.065 -8.694,20.996 -16.709,28.901l-149.114,149.235c-38.495,36.462 -79.135,12.192 -91.214,0c-25.174,-25.174 -25.174,-66.153 0,-91.322l66.828,-66.942c4.178,-4.179 5.421,-10.498 3.16,-15.919c-11.74,-27.996 -16.933,-58.814 -15.014,-89.18c0.338,-6.096 -3.046,-11.74 -8.58,-14.224c-5.53,-2.484 -11.964,-1.356 -16.371,2.937l-106.789,106.788c-67.394,67.394 -67.394,177.001 0,244.401c41.991,41.991 147.545,89.403 244.401,-0l149.234,-149.235c10.16,-10.16 19.079,-21.786 26.526,-34.545c23.366,-39.507 29.914,-87.601 17.951,-132.19c-5.187,-20.316 -13.991,-38.942 -25.845,-55.306l-0.004,-0.009Zm-17.037,172.596l-0.005,0.001c-6.21,10.727 -13.658,20.32 -22.015,28.787l-149.341,149.234c-55.992,55.993 -147.092,55.993 -203.077,0c-55.992,-55.992 -55.992,-147.092 0,-203.077l82.518,-82.517c1.808,19.639 6.21,39.06 13.096,57.571l-60.057,60.167c-36.576,36.576 -36.576,95.952 0,132.528c17.612,17.612 73.6,51.59 132.414,-0l149.008,-149.128c11.626,-11.517 19.984,-26.079 24.27,-42.106c5.873,-21.786 3.726,-44.814 -6.096,-65.019c-4.854,-9.823 -10.95,-18.403 -17.95,-25.289c-2.822,-2.822 -5.758,-5.421 -8.918,-7.9l35.558,-35.444c3.16,2.599 19.079,19.302 24.047,26.526c9.931,13.659 17.16,29.125 21.671,45.833c9.708,37.018 4.178,77.091 -15.123,109.833Z" style="fill-rule:nonzero;"/><path d="M649.303,50.572c-32.622,-32.622 -75.97,-50.572 -122.14,-50.572c-46.17,-0 -89.633,17.95 -122.14,50.572l-149.129,149.129c-9.931,9.931 -18.849,21.562 -26.526,34.544c-23.256,39.507 -29.913,87.71 -18.173,132.191c5.191,19.64 22.238,65.924 66.827,96.29c2.599,1.694 11.402,5.42 18.741,-1.58c-0,-0 57.571,-58.024 58.923,-59.943c2.37,-3.497 3.046,-7.899 1.918,-11.963c-1.128,-4.064 -4.064,-7.224 -7.79,-9.256c-40.412,-22.353 -38.043,-59.605 -34.093,-74.504c3.046,-11.174 8.695,-20.996 16.709,-29.125l149.235,-149.128c12.078,-12.192 28.22,-18.85 45.494,-18.85l0.114,0c17.269,0 33.526,6.663 45.603,18.85c25.175,25.174 25.175,66.153 0,91.322l-66.827,66.828c-4.179,4.178 -5.421,10.498 -3.16,15.919c11.626,27.767 16.818,58.7 15.014,89.289c-0.338,6.096 3.045,11.74 8.58,14.224c5.53,2.484 11.964,1.242 16.257,-2.937l106.679,-106.788c32.622,-32.622 50.573,-75.971 50.573,-122.141c-0.006,-46.175 -18.07,-89.861 -50.693,-122.373l0.004,0.002Zm-20.543,223.739l-82.404,82.518c-1.809,-19.755 -6.211,-39.284 -12.982,-57.687l60.057,-60.057c36.576,-36.576 36.576,-95.952 -0,-132.528c-17.727,-17.83 -41.208,-27.539 -66.268,-27.539l-0.114,0c-25.06,0 -48.54,9.823 -66.039,27.43l-149.341,149.128c-11.626,11.74 -19.754,25.965 -24.155,42.22c-5.644,21.786 -7.11,64.229 33.073,98.098l-35.444,35.444c-29.69,-26.079 -41.54,-56.101 -45.832,-72.472c-9.822,-36.915 -4.288,-76.989 15.128,-109.949c6.32,-10.835 13.773,-20.543 22.015,-28.672l149.115,-149.128c27.091,-27.092 63.102,-41.991 101.596,-41.991c38.493,-0 74.504,14.899 101.596,41.991c27.091,27.092 41.991,63.102 41.991,101.596c0.005,38.495 -14.895,74.504 -41.987,101.596l-0.005,0.002Z" style="fill-rule:nonzero;"/></g></svg>